<svg width="241" height="278" viewBox="0 0 241 278" fill="none" xmlns="http://www.w3.org/2000/svg">
<g clip-path="url(#clip0)">
<path d="M241 119.858C241 186.027 187.023 239.716 120.5 239.716C53.9414 239.716 0 186.027 0 119.858C0 53.6541 53.9414 0 120.5 0C187.023 0 241 53.6541 241 119.858Z" fill="#C7005C"/>
<path d="M120.569 203.759L147.114 236.543C147.114 236.543 223.242 222.689 239.438 139.353L181.457 64.9351L120.569 203.759Z" fill="#87003F"/>
<path d="M160.687 58.2716H121.135H81.5825C81.5825 58.2716 75.5221 68.812 67.2289 69.7638C37.8482 170.938 121.099 195.932 121.135 195.967C121.206 195.932 204.422 170.938 175.041 69.7638C166.712 68.812 160.687 58.2716 160.687 58.2716Z" fill="#C7005C"/>
<path d="M156.51 64.6518H120.537H84.5642C84.5642 64.6518 79.0708 74.1699 71.5219 75.0512C44.7993 166.461 120.502 189.022 120.537 189.057C120.572 189.022 196.275 166.461 169.552 75.0512C162.003 74.1699 156.51 64.6518 156.51 64.6518Z" fill="white"/>
<path d="M182.199 67.3319L181.455 64.9348L178.62 64.6175C173.268 64.0182 167.988 56.9677 166.57 54.5706L165.365 52.5612H75.6634L74.4939 54.5706C73.0762 56.9677 67.8664 63.9829 62.4439 64.6175L59.5731 64.9348L58.8643 67.3319C26.5066 176.191 118.37 203.194 119.327 203.441L120.567 203.758L121.772 203.441C122.694 203.159 214.309 175.345 182.199 67.3319ZM120.532 195.968C109.439 192.196 39.9033 164.628 66.4487 71.3507C73.3952 69.3061 78.4278 63.2074 80.7315 59.9642H160.332C162.636 63.2074 167.669 69.3061 174.615 71.3507C201.16 164.628 131.59 192.196 120.532 195.968Z" fill="white"/>
<path d="M140.697 107.413H137.933C137.933 95.2157 130.561 88.1652 120.425 88.1652C112.486 88.1652 106.249 92.5012 103.909 100.257C103.803 100.574 106.568 104.099 108.836 101.702C109.084 101.455 109.367 100.645 109.58 100.257C111.6 95.0394 116.03 93.6646 120.425 93.6646C126.379 93.6646 132.404 96.2027 132.404 107.413H113.975H99.9046C96.0415 107.483 94.7302 109.035 94.7302 112.983V138.647C94.7302 142.701 96.077 146.508 100.153 146.508H140.697C144.773 146.508 147.289 142.701 147.289 138.647V112.983C147.289 108.929 144.773 107.413 140.697 107.413Z" fill="#C7005C"/>
<path d="M188.334 271.479C188.334 275.074 157.783 278 120.074 278C82.4001 278 51.8499 275.074 51.8499 271.479C51.8499 267.883 82.4001 264.957 120.074 264.957C157.783 264.957 188.334 267.883 188.334 271.479Z" fill="url(#paint0_radial)" fill-opacity="0.701961"/>
<path d="M188.334 271.479C188.334 275.074 157.783 278 120.074 278C82.4001 278 51.8499 275.074 51.8499 271.479C51.8499 267.883 82.4001 264.957 120.074 264.957C157.783 264.957 188.334 267.883 188.334 271.479Z" fill="url(#paint1_radial)" fill-opacity="0.701961"/>
<path d="M188.334 271.479C188.334 275.074 157.783 278 120.074 278C82.4001 278 51.8499 275.074 51.8499 271.479C51.8499 267.883 82.4001 264.957 120.074 264.957C157.783 264.957 188.334 267.883 188.334 271.479Z" fill="url(#paint2_radial)" fill-opacity="0.701961"/>
<path d="M125.034 138.683H115.819L117.591 125.887C115.783 124.865 114.543 122.714 114.543 120.493C114.543 117.25 117.201 114.465 120.497 114.465C123.758 114.465 126.416 117.074 126.416 120.317C126.416 122.573 125.14 124.97 123.261 125.957L125.034 138.683Z" fill="white"/>
</g>
<defs>
<radialGradient id="paint0_radial" cx="0" cy="0" r="1" gradientUnits="userSpaceOnUse" gradientTransform="translate(120.083 271.485) scale(67.6727 0.645073)">
<stop stop-color="#8D8D8D"/>
<stop offset="0.109804" stop-color="#8D8D8D"/>
<stop offset="1" stop-color="white"/>
</radialGradient>
<radialGradient id="paint1_radial" cx="0" cy="0" r="1" gradientUnits="userSpaceOnUse" gradientTransform="translate(120.083 271.485) scale(67.6727 0.645073)">
<stop stop-color="#8D8D8D"/>
<stop offset="0.109804" stop-color="#8D8D8D"/>
<stop offset="1" stop-color="white"/>
</radialGradient>
<radialGradient id="paint2_radial" cx="0" cy="0" r="1" gradientUnits="userSpaceOnUse" gradientTransform="translate(120.083 271.485) scale(67.6727 0.645073)">
<stop stop-color="#8D8D8D"/>
<stop offset="0.109804" stop-color="#8D8D8D"/>
<stop offset="1" stop-color="white"/>
</radialGradient>
<clipPath id="clip0">
<rect width="241" height="278" fill="white"/>
</clipPath>
</defs>
</svg>
